<svg width="1984" height="1984" viewBox="0 0 1984 1984" fill="none" xmlns="http://www.w3.org/2000/svg">
<path d="M1984 992C1984 1540 1540 1984 992 1984C889.6 1984 791.2 1968.4 698.4 1939.6C738.8 1873.6 799.2 1765.6 821.6 1679.6C833.6 1633.2 883.2 1443.6 883.2 1443.6C915.6 1505.2 1010 1557.6 1110.4 1557.6C1409.6 1557.6 1625.2 1282.4 1625.2 940.4C1625.2 612.8 1357.6 367.6 1013.6 367.6C585.6 367.6 358 654.8 358 968C358 1113.6 435.6 1294.8 559.2 1352.4C578 1361.2 588 1357.2 592.4 1339.2C595.6 1325.6 612.4 1258 620 1226.8C622.4 1216.8 621.2 1208 613.2 1198.4C572.8 1148.4 540 1057.2 540 972C540 753.2 705.6 541.6 988 541.6C1231.6 541.6 1402.4 707.6 1402.4 945.2C1402.4 1213.6 1266.8 1399.6 1090.4 1399.6C993.2 1399.6 920 1319.2 943.6 1220.4C971.6 1102.4 1025.6 975.2 1025.6 890C1025.6 814 984.8 750.4 900 750.4C800.4 750.4 720.4 853.2 720.4 991.2C720.4 1079.2 750 1138.4 750 1138.4C750 1138.4 652 1553.6 634 1631.2C614 1716.8 622 1837.6 630.4 1916C261.6 1771.6 0 1412.4 0 992C0 444 444 0 992 0C1540 0 1984 444 1984 992Z" fill="black"/>
</svg>
